<?xml version="1.0" encoding="iso-8859-1"?>
<!-- Generator: Adobe Illustrator 19.0.0, SVG Export Plug-In . SVG Version: 6.00 Build 0)  -->
<svg xmlns="http://www.w3.org/2000/svg" xmlns:xlink="http://www.w3.org/1999/xlink" version="1.1" id="Capa_1" x="0px" y="0px" viewBox="0 0 512 512" style="enable-background:new 0 0 512 512;" xml:space="preserve" width="512px" height="512px">
<g>
	<g>
		<path d="M466.593,110.524c-25.885-37.485-61.043-67.222-102.024-86.38c-3.869-1.809-8.469-0.017-10.159,3.905v0.001    c-1.63,3.786,0.063,8.16,3.796,9.906c38.504,18.017,71.542,45.974,95.872,81.21c27.948,40.473,42.544,87.419,42.69,135.561    c-12.916-0.042-25.7-1.111-38.268-3.178l0.286-19.167c0.063-4.199-3.29-7.654-7.489-7.716c-4.177-0.044-7.654,3.291-7.717,7.489    l-0.244,16.393c-13.528-3.14-26.754-7.462-39.565-12.931l7.907-19.881c1.429-3.592,0.122-7.82-3.263-9.689    c-4.093-2.261-9.101-0.375-10.773,3.83l-7.686,19.324c-9.909-4.994-19.531-10.698-28.809-17.102    c-2.169-1.497-4.307-3.028-6.416-4.589l11.598-14.124c2.642-3.217,2.467-8.058-0.67-10.796c-3.246-2.833-8.168-2.407-10.882,0.899    l-11.986,14.597c-10.112-8.509-19.43-17.769-27.901-27.667l14.527-11.928c2.989-2.455,3.888-6.79,1.827-10.063    c-2.492-3.957-7.784-4.724-11.28-1.853l-14.594,11.984c-8.343-11.101-15.692-22.881-21.974-35.208l19.596-7.794    c3.594-1.43,5.768-5.287,4.797-9.032c-1.174-4.527-5.982-6.863-10.181-5.193l-20.693,8.231    c-5.531-12.803-9.953-26.11-13.198-39.78l16.92-0.252c4.146-0.062,7.717-3.299,7.802-7.445c0.088-4.289-3.361-7.767-7.6-7.767    c-0.038,0-0.077,0-0.116,0.001l-20.097,0.3c-2.197-12.895-3.358-26.059-3.431-39.383c23.583,0.158,47.187,3.739,69.746,10.667    c3.938,1.21,8.124-0.898,9.455-4.797c1.382-4.045-0.832-8.463-4.918-9.719C296.498,0.633,259.146-2.585,222.949,2.094    c-40.644,5.253-78.467,19.805-112.42,43.25C54.268,84.194,16.504,142.629,4.195,209.884C-8.041,276.74,6.73,345.479,45.35,401.407    c38.848,56.258,97.281,94.022,164.531,106.333c15.558,2.848,31.148,4.255,46.631,4.254    c51.864-0.002,102.458-15.794,145.936-46.126c56.502-39.417,94.557-99.677,105.965-167.62    C519.496,232.242,504.708,165.722,466.593,110.524z M212.623,492.779c-63.26-11.579-118.22-47.098-154.76-100.015    c-27.704-40.12-42.291-86.599-42.687-134.301c12.922,0.133,25.688,1.294,38.205,3.427l-0.299,20.074    c-0.063,4.199,3.29,7.654,7.489,7.716c0.039,0,0.077,0.001,0.116,0.001c4.147,0,7.539-3.331,7.601-7.49l0.256-17.215    c13.669,3.245,26.97,7.671,39.772,13.202l-8.221,20.671c-1.552,3.902,0.353,8.324,4.255,9.876c0.922,0.367,1.873,0.54,2.808,0.54    c3.022,0,5.883-1.816,7.068-4.796l7.879-19.81c12.326,6.281,24.104,13.626,35.202,21.969l-11.969,14.576    c-2.665,3.245-2.195,8.037,1.05,10.702c1.415,1.162,3.124,1.728,4.822,1.728c2.197,0,4.377-0.948,5.88-2.779l12.077-14.708    c9.898,8.471,19.165,17.778,27.674,27.889l-14.59,11.98c-3.245,2.665-3.716,7.457-1.05,10.702c1.503,1.831,3.683,2.779,5.88,2.779    c1.698,0,3.407-0.566,4.822-1.728l14.366-11.796c1.559,2.109,3.093,4.243,4.591,6.411c6.404,9.278,12.109,18.902,17.103,28.811    l-19.323,7.686c-3.903,1.552-5.808,5.974-4.255,9.876c1.185,2.981,4.044,4.796,7.068,4.796c0.936,0,1.886-0.173,2.808-0.54    l20.118-8.001c5.468,12.812,9.79,26.037,12.93,39.564l-16.392,0.244c-4.199,0.063-7.551,3.517-7.489,7.716    c0.063,4.161,3.453,7.49,7.601,7.49c0.038,0,0.077,0,0.116-0.001l19.166-0.286c2.001,12.163,3.066,24.528,3.17,37.016    C239.908,496.587,226.249,495.275,212.623,492.779z M492.785,299.319c-11.579,63.253-47.099,118.213-100.016,154.754    c-37.249,25.723-79.982,40.132-124.085,42.381c-0.113-12.452-1.11-24.791-2.997-36.943l19.594-0.293    c4.199-0.063,7.551-3.517,7.489-7.717c-0.064-4.198-3.482-7.558-7.716-7.489l-22.201,0.332    c-3.361-15.388-8.16-30.421-14.338-44.955l16.055-6.385c3.903-1.552,5.808-5.974,4.255-9.876    c-1.552-3.903-5.976-5.806-9.875-4.255l-16.809,6.685c-5.448-10.952-11.704-21.581-18.765-31.813    c-1.738-2.517-3.521-4.992-5.338-7.434l15.71-12.9c3.245-2.665,3.716-7.457,1.05-10.702c-2.664-3.246-7.456-3.715-10.702-1.051    l-15.492,12.721c-9.146-10.886-19.11-20.908-29.766-30.008l12.611-15.359c2.665-3.245,2.195-8.037-1.05-10.702    c-3.243-2.663-8.037-2.195-10.702,1.051l-12.714,15.484c-12.334-9.321-25.464-17.482-39.226-24.399l6.478-16.287    c1.552-3.902-0.353-8.324-4.255-9.876c-3.899-1.551-8.324,0.353-9.875,4.255l-6.156,15.477    c-14.512-6.237-29.628-11.137-45.173-14.61l0.318-21.35c0.063-4.199-3.29-7.654-7.489-7.717c-0.039,0-0.077-0.001-0.116-0.001    c-4.147,0-7.539,3.331-7.601,7.49l-0.279,18.665c-12.493-2.01-25.215-3.115-38.083-3.258c0.561-10.192,1.759-20.415,3.628-30.62    C30.733,149.358,66.253,94.398,119.169,57.858c31.939-22.055,67.511-35.742,105.729-40.681c5.671-0.733,11.374-1.235,17.09-1.557    c0.087,13.257,1.191,26.367,3.262,39.232l-18.665,0.279c-4.199,0.063-7.551,3.517-7.489,7.716c0.063,4.161,3.453,7.49,7.601,7.49    c0.038,0,0.077,0,0.116-0.001l21.35-0.318c3.474,15.544,8.374,30.659,14.613,45.172l-15.479,6.156    c-3.903,1.552-5.808,5.974-4.255,9.876c1.185,2.981,4.044,4.796,7.068,4.796c0.936,0,1.886-0.173,2.808-0.54l16.291-6.48    c6.917,13.76,15.076,26.89,24.398,39.224l-15.487,12.717c-3.245,2.665-3.716,7.457-1.05,10.702    c1.503,1.831,3.683,2.779,5.88,2.779c1.698,0,3.407-0.566,4.822-1.728l15.361-12.614c9.099,10.657,19.122,20.621,30.006,29.767    l-12.721,15.493c-2.665,3.245-2.195,8.037,1.05,10.702c1.415,1.162,3.123,1.728,4.822,1.728c2.197,0,4.377-0.948,5.88-2.779    l12.9-15.711c2.442,1.818,4.918,3.6,7.436,5.339c10.23,7.061,20.859,13.316,31.81,18.765l-6.685,16.809    c-1.552,3.902,0.353,8.324,4.255,9.876c0.922,0.367,1.873,0.54,2.808,0.54c3.022,0,5.882-1.816,7.068-4.796l6.384-16.053    c14.534,6.178,29.568,10.967,44.957,14.328l-0.332,22.208c-0.063,4.199,3.29,7.654,7.489,7.716c0.039,0,0.077,0.001,0.116,0.001    c4.147,0,7.539-3.331,7.601-7.49l0.293-19.599c12.522,1.945,25.24,2.955,38.078,3.014    C495.76,279.719,494.578,289.527,492.785,299.319z" fill="#1c0072"/>
	</g>
</g>
<g>
</g>
<g>
</g>
<g>
</g>
<g>
</g>
<g>
</g>
<g>
</g>
<g>
</g>
<g>
</g>
<g>
</g>
<g>
</g>
<g>
</g>
<g>
</g>
<g>
</g>
<g>
</g>
<g>
</g>
</svg>
