<svg id="Layer_1" data-name="Layer 1" xmlns="http://www.w3.org/2000/svg" viewBox="0 0 512 512"><defs><style>.cls-1{fill:#010101;}</style></defs><title>icons intix</title><path class="cls-1" d="M380,141,352,19a10,10,0,0,0-6-7,9,9,0,0,0-9,1L256,69,175,13a9,9,0,0,0-9-1,10,10,0,0,0-6,7L132,141a10,10,0,0,0,4,10l6,2h4l52-28,18,63L188,443a9,9,0,0,0,4,9l58,48c2,2,4,2,6,2l6-2,57-47,2-2a9,9,0,0,0,2-8L297,186l18-63,52,28h4l6-2A9,9,0,0,0,380,141ZM176,37l61,43-38,20h0l-44,24ZM303,440l-48,40-48-39,27-244h43ZM279,177H233l-18-62,40-22,40,22Zm34-76h0L274,80l61-43,20,88Z"/></svg>