<?xml version="1.0" encoding="iso-8859-1"?>
<!-- Generator: Adobe Illustrator 19.0.0, SVG Export Plug-In . SVG Version: 6.00 Build 0)  -->
<svg version="1.1" id="Layer_1" xmlns="http://www.w3.org/2000/svg" xmlns:xlink="http://www.w3.org/1999/xlink" x="0px" y="0px"
	 viewBox="0 0 512 512" style="enable-background:new 0 0 512 512;" xml:space="preserve">
<g>
	<g>
		<g>
			<path d="M309.7,441.233l17.067,17.067c1.664,1.664,3.849,2.5,6.033,2.5c2.185,0,4.369-0.836,6.033-2.5l17.067-17.067
				c1.596-1.604,2.5-3.772,2.5-6.033V324.267h8.533c4.719,0,8.533-3.823,8.533-8.533V281.6c0-4.71-3.814-8.533-8.533-8.533H358.4
				V59.733c0-4.71-3.814-8.533-8.533-8.533s-8.533,3.823-8.533,8.533v213.333h-17.067V59.733c0-4.71-3.814-8.533-8.533-8.533
				s-8.533,3.823-8.533,8.533v213.333h-8.533c-4.719,0-8.533,3.823-8.533,8.533v34.133c0,4.71,3.814,8.533,8.533,8.533h8.533V435.2
				C307.2,437.461,308.096,439.629,309.7,441.233z M341.333,431.667l-8.533,8.533l-8.533-8.533V324.267h17.067V431.667z
				 M307.2,290.133h51.2V307.2h-51.2V290.133z"/>
			<path d="M119.467,153.6H128c4.719,0,8.533-3.823,8.533-8.533c0-4.71-3.814-8.533-8.533-8.533h-8.533
				c-6.144,0-14.566-5.828-17.971-12.348c-0.068-0.154-7.629-15.539-7.629-38.852c0-22.869,7.45-38.468,7.432-38.468
				c3.9-6.903,12.22-12.732,18.167-12.732h42.667c4.719,0,8.533-3.823,8.533-8.533v-8.533h17.067V25.6
				c0,4.71,3.814,8.533,8.533,8.533h119.467c4.719,0,8.533-3.823,8.533-8.533v-8.533h17.067V25.6c0,4.71,3.814,8.533,8.533,8.533
				h42.667c5.811,0,14.677,5.171,17.963,12.348c0.077,0.154,7.637,15.539,7.637,38.852c0,23.049-7.569,38.724-7.731,39.066
				c-3.234,6.946-12.1,12.134-17.869,12.134H384c-4.719,0-8.533,3.823-8.533,8.533c0,4.71,3.814,8.533,8.533,8.533h8.533
				c13.167,0,27.494-9.455,33.229-21.786c0.393-0.768,9.438-19.183,9.438-46.481c0-27.298-9.045-45.713-9.31-46.225
				c-5.666-12.356-20.318-22.042-33.357-22.042H358.4V8.533c0-4.71-3.814-8.533-8.533-8.533h-34.133
				c-4.719,0-8.533,3.823-8.533,8.533v8.533H204.8V8.533c0-4.71-3.814-8.533-8.533-8.533h-34.133c-4.719,0-8.533,3.823-8.533,8.533
				v8.533h-34.133c-13.739,0-27.017,10.769-33.237,21.786C85.845,39.62,76.8,58.035,76.8,85.333c0,27.298,9.045,45.713,9.498,46.609
				C92.732,144.29,106.991,153.6,119.467,153.6z"/>
			<path d="M487.083,170.667H384c-4.719,0-8.533,3.823-8.533,8.533s3.814,8.533,8.533,8.533h25.6v102.4h-8.533
				c-4.719,0-8.533,3.823-8.533,8.533s3.814,8.533,8.533,8.533h8.533v162.133c0,14.114-11.486,25.6-25.6,25.6H128
				c-14.114,0-25.6-11.486-25.6-25.6V307.2h8.533c4.719,0,8.533-3.823,8.533-8.533s-3.814-8.533-8.533-8.533H102.4v-102.4H128
				c4.719,0,8.533-3.823,8.533-8.533s-3.814-8.533-8.533-8.533H25.6c-14.114,0-25.6,11.486-25.6,25.6v204.8
				c0,14.114,11.486,25.6,25.6,25.6h34.133c4.719,0,8.533-3.823,8.533-8.533s-3.814-8.533-8.533-8.533H25.6
				c-4.71,0-8.533-3.831-8.533-8.533v-204.8c0-4.702,3.823-8.533,8.533-8.533h25.6v76.8c0,4.71,3.814,8.533,8.533,8.533
				s8.533-3.823,8.533-8.533v-76.8h17.067v281.6C85.333,492.86,104.474,512,128,512h256c23.526,0,42.667-19.14,42.667-42.667v-281.6
				h17.067v76.8c0,4.71,3.814,8.533,8.533,8.533c4.719,0,8.533-3.823,8.533-8.533v-76.8h26.283c4.326,0,7.851,3.831,7.851,8.533
				v204.8c0,4.702-3.524,8.533-7.851,8.533h-34.816c-4.719,0-8.533,3.823-8.533,8.533s3.814,8.533,8.533,8.533h34.816
				c13.739,0,24.917-11.486,24.917-25.6v-204.8C512,182.153,500.821,170.667,487.083,170.667z"/>
			<path d="M230.4,153.6h51.2c4.719,0,8.533-3.823,8.533-8.533c0-4.71-3.814-8.533-8.533-8.533h-51.2
				c-4.719,0-8.533,3.823-8.533,8.533C221.867,149.777,225.681,153.6,230.4,153.6z"/>
			<path d="M156.1,441.233l17.067,17.067c1.664,1.664,3.849,2.5,6.033,2.5c2.185,0,4.369-0.836,6.033-2.5l17.067-17.067
				c1.596-1.604,2.5-3.772,2.5-6.033V324.267h8.533c4.719,0,8.533-3.823,8.533-8.533V281.6c0-4.71-3.814-8.533-8.533-8.533H204.8
				V59.733c0-4.71-3.814-8.533-8.533-8.533s-8.533,3.823-8.533,8.533v213.333h-17.067V59.733c0-4.71-3.814-8.533-8.533-8.533
				s-8.533,3.823-8.533,8.533v213.333h-8.533c-4.719,0-8.533,3.823-8.533,8.533v34.133c0,4.71,3.814,8.533,8.533,8.533h8.533V435.2
				C153.6,437.461,154.496,439.629,156.1,441.233z M187.733,431.667l-8.533,8.533l-8.533-8.533V324.267h17.067V431.667z
				 M153.6,290.133h51.2V307.2h-51.2V290.133z"/>
			<path d="M290.133,179.2c0-4.71-3.814-8.533-8.533-8.533h-51.2c-4.719,0-8.533,3.823-8.533,8.533s3.814,8.533,8.533,8.533h51.2
				C286.319,187.733,290.133,183.91,290.133,179.2z"/>
			<path d="M247.467,290.133c-4.719,0-8.533,3.823-8.533,8.533s3.814,8.533,8.533,8.533h17.067c4.719,0,8.533-3.823,8.533-8.533
				s-3.814-8.533-8.533-8.533H247.467z"/>
		</g>
	</g>
</g>
<g>
</g>
<g>
</g>
<g>
</g>
<g>
</g>
<g>
</g>
<g>
</g>
<g>
</g>
<g>
</g>
<g>
</g>
<g>
</g>
<g>
</g>
<g>
</g>
<g>
</g>
<g>
</g>
<g>
</g>
</svg>
