<svg id="Layer_1" data-name="Layer 1" xmlns="http://www.w3.org/2000/svg" viewBox="0 0 512 512"><defs><style>.cls-1{fill:#010101;}</style></defs><title>icons intix</title><path class="cls-1" d="M497,211l-99-99,89-88L472,9,383,97a27,27,0,0,0-35,1l-45,45a26,26,0,0,0-8,18,35,35,0,0,0-14,5,26,26,0,0,0-37,0l-6,6h-1a36,36,0,0,0-21-10,26,26,0,0,0-7-18L164,98a26,26,0,0,0-35-1L40,9,25,23l89,88L14,211a26,26,0,0,0,0,37l45,45a26,26,0,0,0,18,7,36,36,0,0,0,10,21l19,19-5,5a34,34,0,0,0,24,58,34,34,0,0,0,34,34,34,34,0,0,0,34,34,34,34,0,0,0,58,23l89-89h0l84-84a36,36,0,0,0,10-21,26,26,0,0,0,18-7l45-45a26,26,0,0,0,0-37ZM247,192l12-12a5,5,0,0,1,7,0l62,62a5,5,0,0,1,0,7l-12,12a5,5,0,0,1-7,0l-62-62h0A5,5,0,0,1,247,192ZM86,274h0l-4,4a5,5,0,0,1-7,0L29,233h0a5,5,0,0,1,0-7L142,113a5,5,0,0,1,7,0l46,45a5,5,0,0,1,0,7l-4,4h0Zm17,32a15,15,0,0,1-4-10,10,10,0,0,1,2-7L205,184a13,13,0,0,1,17,2l4,4a26,26,0,0,0-1,7,26,26,0,0,0,7,18L121,325Zm307,0-67,67h0L236,479a13,13,0,0,1-19-19h0L323,354l-15-15L203,445a13,13,0,1,1-19-19L289,321l-15-14L169,412a13,13,0,0,1-23-10,13,13,0,0,1,4-10L256,287l-15-15L135,378a13,13,0,1,1-20-18h1L247,229l48,48a26,26,0,0,0,37,0l12-12a26,26,0,0,0,0-37l-46-46a10,10,0,0,1,9,2l75,75,29,29a9,9,0,0,1,3,7,15,15,0,0,1-5,11Zm73-73h0l-45,45a5,5,0,0,1-7,0l-4-4h0L321,169h0l-4-4a5,5,0,0,1,0-7l45-45a5,5,0,0,1,7,0L483,226a5,5,0,0,1,0,7Z"/><path class="cls-1" d="M396,359a13,13,0,0,1-18,20h-1l-15,15a13,13,0,0,1,0,19h0a13,13,0,0,1-19,0l-14,15a13,13,0,0,1-19,19l-15,15a13,13,0,0,1,0,19h0a13,13,0,0,1-19,0l-15,14a34,34,0,0,0,58-24,34,34,0,0,0,34-34,34,34,0,0,0,34-34,34,34,0,0,0,24-58Z"/></svg>